<?xml version="1.0" standalone="no"?>
<!DOCTYPE svg PUBLIC "-//W3C//DTD SVG 20010904//EN"
 "http://www.w3.org/TR/2001/REC-SVG-20010904/DTD/svg10.dtd">
<svg version="1.0" xmlns="http://www.w3.org/2000/svg"
 width="225.000000pt" height="225.000000pt" viewBox="0 0 225.000000 225.000000"
 preserveAspectRatio="xMidYMid meet">

<g transform="translate(0.000000,225.000000) scale(0.100000,-0.100000)"
fill="#000000" stroke="none">
<path d="M0 1125 l0 -1125 1125 0 1125 0 0 1125 0 1125 -1125 0 -1125 0 0
-1125z m1259 500 c162 -43 303 -170 362 -325 73 -193 24 -415 -127 -566 -61
-61 -167 -124 -210 -124 -30 0 -34 16 -34 129 0 71 -4 102 -16 119 -12 18 -13
22 -1 22 39 0 123 35 158 67 68 61 90 193 47 283 -14 29 -22 66 -22 105 -1 33
-5 66 -9 73 -12 18 -48 15 -92 -9 -36 -19 -57 -21 -190 -21 -134 -1 -155 2
-192 21 -23 11 -53 21 -67 21 -21 0 -26 -6 -32 -36 -3 -19 -4 -51 -1 -71 5
-27 1 -42 -16 -65 -19 -26 -22 -43 -22 -121 0 -82 3 -97 27 -138 29 -49 95
-92 161 -104 20 -4 37 -8 37 -10 0 -1 -7 -19 -15 -38 -12 -28 -22 -37 -48 -42
-18 -4 -43 -2 -57 3 -14 5 -32 7 -40 5 -12 -4 -12 -2 -2 5 10 7 10 11 -3 22
-11 9 -15 9 -15 1 0 -7 -5 -9 -11 -5 -8 4 -7 9 2 15 10 6 9 12 -6 29 -10 11
-25 18 -32 15 -8 -2 -11 0 -8 5 3 6 -5 10 -19 10 -31 0 -34 -15 -7 -30 11 -5
32 -33 47 -61 33 -60 65 -79 134 -79 l50 0 0 -60 c0 -58 -1 -60 -26 -60 -44 0
-146 61 -215 130 -164 162 -202 397 -99 606 64 131 196 242 331 278 70 19 209
20 278 1z m-359 -845 c0 -5 -2 -10 -4 -10 -3 0 -8 5 -11 10 -3 6 -1 10 4 10 6
0 11 -4 11 -10z m90 6 c0 -3 -4 -8 -10 -11 -5 -3 -10 -1 -10 4 0 6 5 11 10 11
6 0 10 -2 10 -4z"/>
</g>
</svg>
